<?xml version="1.0" standalone="no"?>
<!DOCTYPE svg PUBLIC "-//W3C//DTD SVG 20010904//EN"
 "http://www.w3.org/TR/2001/REC-SVG-20010904/DTD/svg10.dtd">
<svg version="1.0" xmlns="http://www.w3.org/2000/svg"
 width="680.000000pt" height="680.000000pt" viewBox="0 0 680.000000 680.000000"
 preserveAspectRatio="xMidYMid meet">
<metadata>
Created by potrace 1.14, written by Peter Selinger 2001-2017
</metadata>
<g transform="translate(0.000000,680.000000) scale(0.100000,-0.100000)"
fill="#000000" stroke="none">
<path d="M0 5935 c0 -851 0 -865 20 -865 10 0 24 -8 29 -17 6 -10 11 -12 11
-5 0 20 20 13 20 -8 0 -30 37 -46 60 -25 10 9 17 22 14 28 -6 18 7 32 44 46
28 12 38 11 80 -7 41 -18 55 -19 86 -11 45 12 85 -3 130 -50 47 -49 140 -52
196 -5 28 23 66 26 106 8 21 -9 66 -18 99 -19 33 -2 74 -9 90 -16 20 -8 93
-13 215 -15 428 -6 690 -13 724 -20 67 -12 84 -77 35 -130 -17 -18 -18 -25 -8
-46 9 -20 8 -32 -6 -58 -16 -31 -16 -33 3 -54 11 -11 27 -37 36 -56 9 -19 28
-51 42 -70 20 -28 24 -42 19 -70 -11 -61 16 -57 -410 -51 -117 2 -158 -1 -187
-13 -21 -9 -46 -16 -57 -16 -28 0 -80 53 -87 90 -4 17 -17 38 -30 46 -20 14
-29 14 -86 -1 -76 -21 -61 -20 -180 -6 -188 21 -216 15 -232 -53 -9 -37 -41
-83 -67 -97 -16 -8 -29 -6 -59 9 -36 18 -41 18 -54 3 -7 -9 -17 -26 -20 -39
-13 -39 -36 -43 -219 -38 -175 4 -210 8 -231 24 -6 5 -24 12 -41 14 -16 3 -38
9 -47 13 -13 5 -18 3 -18 -9 0 -9 11 -21 24 -25 39 -16 41 -54 3 -82 -4 -3
-15 -30 -24 -60 -14 -44 -17 -108 -20 -345 l-4 -292 23 -6 c13 -3 57 -9 98
-12 58 -5 83 -3 105 9 41 20 67 52 63 74 -1 10 2 20 7 23 6 3 10 -7 11 -23 1
-15 4 -30 7 -33 10 -10 81 -24 124 -24 24 0 63 -5 87 -12 42 -11 47 -10 85 17
l41 28 56 -22 c31 -11 64 -21 74 -21 11 0 27 -13 36 -30 30 -49 65 -60 189
-54 225 9 277 13 289 24 15 11 31 188 28 290 -4 143 -11 281 -17 386 l-7 111
28 31 29 31 320 -9 c176 -4 331 -13 345 -18 37 -14 48 -31 64 -98 8 -32 22
-77 31 -99 11 -25 19 -73 22 -128 1 -49 6 -93 9 -98 8 -13 -10 -11 -25 4 -18
17 -6 -106 18 -193 11 -36 19 -72 20 -80 2 -43 20 -153 35 -215 33 -133 36
-156 30 -211 -7 -54 -6 -56 14 -50 18 6 23 1 32 -35 8 -29 8 -44 1 -48 -6 -4
-12 -22 -13 -40 -3 -28 2 -36 27 -51 27 -15 32 -26 46 -96 8 -43 19 -88 22
-100 11 -33 -18 -48 -138 -73 -60 -13 -173 -41 -250 -63 -77 -21 -160 -41
-185 -44 -105 -12 -111 -14 -105 -34 5 -15 0 -21 -19 -26 -13 -3 -27 -13 -30
-21 -5 -12 -9 -13 -21 -3 -8 7 -15 11 -16 9 0 -2 -2 -12 -4 -22 -2 -11 -7 -22
-11 -25 -4 -4 -4 1 -1 11 4 9 3 17 -1 17 -4 0 -22 -30 -40 -67 -18 -38 -42
-83 -53 -102 -11 -18 -18 -39 -15 -46 2 -7 -1 -18 -7 -25 -9 -10 -9 -11 0 -6
17 10 16 -2 -1 -19 -7 -8 -16 -11 -19 -8 -4 3 -18 -2 -32 -11 -15 -10 -31 -16
-37 -14 -7 3 -19 -3 -29 -13 -9 -9 -38 -25 -65 -35 -94 -35 -181 -93 -217
-143 -58 -80 -148 -293 -155 -364 -5 -61 -7 -63 -71 -127 -71 -69 -111 -115
-111 -128 0 -4 -50 -32 -112 -62 -61 -30 -123 -68 -137 -84 -14 -16 -60 -63
-101 -105 -42 -42 -86 -91 -99 -108 -30 -44 -31 -120 -1 -168 37 -59 80 -71
131 -34 34 24 59 22 69 -6 6 -16 -5 -35 -52 -90 -33 -39 -69 -83 -81 -99 -12
-15 -34 -42 -48 -60 -71 -87 -153 -204 -183 -264 -71 -138 -106 -225 -106
-263 l0 -39 1621 0 1621 0 -6 42 c-3 24 -8 57 -11 73 -3 17 -8 48 -11 70 -4
22 -11 46 -17 53 -11 14 -27 84 -31 138 -2 17 -7 37 -11 45 -9 14 -22 74 -31
150 l-6 47 39 6 c41 7 81 -3 100 -26 12 -14 16 -27 48 -163 10 -38 23 -83 30
-100 8 -16 19 -57 25 -90 14 -70 24 -120 41 -192 l13 -53 642 0 642 0 -5 207
c-2 115 -6 246 -9 293 -8 168 -15 276 -20 325 -2 28 -6 84 -8 126 -1 42 -7 82
-11 90 -10 16 -26 91 -28 135 -1 18 -10 41 -19 51 -10 11 -18 33 -18 50 0 17
-7 36 -15 43 -8 7 -15 18 -15 24 0 6 -13 30 -28 52 -15 23 -44 67 -64 98 -46
68 -54 98 -36 125 14 19 15 19 54 2 22 -10 61 -42 88 -72 53 -59 125 -166 126
-187 0 -7 9 -30 19 -50 41 -80 68 -178 85 -312 8 -58 14 -114 14 -125 1 -41
12 -181 17 -212 3 -18 8 -88 10 -155 12 -346 16 -436 21 -470 l6 -38 624 0
624 0 0 25 c0 13 8 40 17 60 15 32 20 35 59 35 38 0 42 -2 48 -30 3 -16 9 -44
12 -60 l6 -30 274 0 274 0 0 150 c0 143 -1 150 -20 150 -11 0 -20 -6 -20 -13
0 -8 -14 -26 -31 -41 -28 -25 -34 -27 -55 -16 -30 16 -47 68 -38 114 5 28 3
36 -9 36 -8 0 -20 7 -27 15 -7 9 -15 13 -18 10 -7 -7 -33 31 -60 89 -19 41
-21 54 -12 81 15 45 -1 85 -34 85 -42 0 -55 -23 -55 -100 0 -76 -18 -125 -51
-135 -11 -3 -20 -9 -20 -13 0 -4 -4 -33 -10 -65 -10 -64 2 -108 39 -141 26
-23 26 -26 0 -80 -29 -63 -62 -68 -107 -18 -33 37 -37 62 -15 118 4 10 -3 14
-28 14 -34 -1 -79 -29 -79 -49 0 -17 -55 -71 -72 -71 -33 0 -58 45 -65 116 -3
38 -11 76 -18 84 -20 26 -56 211 -54 282 2 54 -2 71 -20 93 -11 15 -21 37 -21
49 0 25 -5 35 -107 202 -44 71 -106 182 -137 245 -66 130 -74 141 -190 264
-48 49 -86 92 -86 96 0 13 -136 116 -200 151 -40 22 -92 40 -135 48 -38 7 -90
19 -115 27 -25 8 -82 18 -126 23 -114 12 -161 26 -169 51 -4 11 -35 51 -69 87
-60 64 -106 137 -106 166 0 8 -15 24 -34 35 -37 23 -52 47 -33 54 7 2 9 8 5
12 -4 4 -14 2 -23 -5 -12 -10 -16 -9 -21 3 -3 9 -3 20 0 26 10 15 -9 22 -42
15 -34 -7 -46 -33 -32 -69 5 -13 6 -32 3 -43 -4 -17 -9 -19 -30 -11 -46 17
-57 3 -28 -35 14 -19 15 -18 24 5 5 13 10 19 10 13 1 -14 -23 -64 -31 -64 -3
0 -20 -11 -36 -25 -16 -13 -31 -23 -33 -21 -2 2 -19 6 -36 9 -28 6 -33 4 -33
-13 0 -11 -7 -20 -15 -20 -8 0 -15 6 -15 14 0 7 -9 16 -20 19 -15 4 -22 -1
-26 -16 -4 -20 -12 -22 -73 -24 -63 -1 -70 1 -81 23 -14 25 -30 32 -30 13 0
-14 -49 -3 -70 16 -25 21 -57 27 -72 12 -7 -7 -19 -12 -26 -9 -7 2 -12 0 -11
-5 3 -19 -2 -23 -20 -14 -14 8 -20 7 -24 -3 -3 -7 -16 -12 -29 -11 -12 1 -31
-2 -40 -7 -10 -5 -18 -5 -18 -1 0 7 -48 9 -67 3 -5 -1 -11 -2 -15 -1 -5 0 -8
-8 -8 -18 0 -21 -25 -35 -43 -24 -7 4 -4 9 8 13 12 4 15 9 7 13 -6 4 -17 1
-24 -6 -11 -12 -14 -12 -23 0 -6 8 -29 17 -52 20 -40 5 -70 25 -73 48 -1 6 -7
9 -15 7 -7 -1 -16 2 -20 8 -4 6 -12 7 -24 1 -34 -19 -59 -9 -66 26 -4 21 -13
34 -27 39 -19 6 -19 7 -5 16 20 11 23 48 3 48 -29 0 -65 40 -64 73 0 48 7 67
26 68 14 0 14 2 -2 8 -25 10 -48 86 -35 115 37 80 62 104 107 101 20 -1 51 -3
68 -4 22 -1 35 -8 44 -26 7 -14 22 -25 32 -25 10 0 18 -4 18 -10 0 -5 12 -10
28 -10 15 0 34 -5 42 -10 24 -16 -7 -31 -56 -27 -33 3 -41 0 -40 -12 1 -9 7
-20 14 -24 6 -4 12 -14 12 -21 0 -15 42 -56 58 -56 18 0 62 -22 62 -31 0 -12
32 -49 39 -45 3 2 51 7 106 10 117 8 168 20 192 45 10 10 39 24 65 31 26 7 55
21 64 31 9 11 23 19 30 19 7 0 18 9 24 20 8 15 6 23 -12 40 -23 22 -29 23 -98
20 -42 -1 -44 -1 -25 14 11 8 24 16 28 16 5 0 21 8 35 19 39 27 118 52 183 56
70 5 111 -14 179 -84 49 -51 62 -85 38 -94 -8 -3 -2 -9 13 -15 35 -14 47 -59
22 -77 -13 -10 -15 -17 -7 -25 8 -8 14 -9 18 -1 4 6 16 11 26 11 28 0 42 32
30 66 -11 28 -1 43 26 44 12 0 29 35 40 83 5 24 4 27 -17 25 -34 -4 -68 59
-63 120 2 26 5 65 5 87 1 22 6 43 13 47 7 5 4 8 -7 8 -16 0 -17 6 -11 45 5 39
3 48 -17 70 -13 13 -33 25 -44 26 -17 1 -17 2 -2 6 9 2 17 7 17 10 0 9 -55 63
-64 63 -5 0 -15 8 -23 18 -12 15 -13 14 -7 -13 4 -16 13 -37 20 -46 10 -11 11
-18 3 -26 -8 -8 -6 -11 7 -10 15 2 18 -4 16 -28 -2 -23 0 -26 8 -15 6 10 10
11 10 3 0 -7 5 -12 11 -10 7 1 16 -13 21 -30 5 -18 13 -33 18 -33 18 0 10 -39
-12 -60 -24 -22 -39 -10 -18 15 17 21 5 49 -18 40 -14 -5 -15 -4 -4 6 20 21
-52 89 -95 89 -35 0 -41 -8 -20 -29 10 -11 4 -13 -34 -8 -40 5 -48 4 -52 -12
-2 -11 0 -24 6 -30 6 -6 8 -14 4 -17 -15 -16 -38 10 -75 86 -33 68 -37 80 -21
75 27 -9 26 40 -1 55 -11 6 -20 17 -20 24 0 16 29 76 47 97 12 15 9 18 -31 28
-55 14 -123 14 -131 1 -9 -15 -85 -9 -101 8 -8 8 -18 12 -21 8 -3 -3 -12 -1
-20 6 -29 24 -117 21 -184 -7 -59 -24 -65 -24 -76 -9 -7 9 -25 17 -40 18 -15
1 -38 7 -50 14 -18 10 -31 9 -69 -4 -46 -16 -49 -15 -65 4 -13 16 -14 31 -9
69 4 26 6 50 4 52 -5 5 -54 -109 -54 -125 0 -8 7 -14 15 -14 9 0 19 -10 24
-22 5 -13 21 -40 35 -60 19 -29 22 -38 10 -38 -12 0 -13 -4 -3 -21 6 -12 9
-30 6 -40 -3 -10 -1 -22 4 -25 5 -3 6 -16 3 -29 -3 -14 0 -33 10 -46 11 -16
12 -27 5 -41 -13 -25 -32 -23 -60 7 -30 31 -50 31 -77 2 -24 -25 -29 -43 -10
-31 18 11 91 5 100 -9 4 -7 8 -8 8 -4 0 4 9 3 20 -3 15 -8 26 -7 46 6 20 14
27 15 34 4 9 -15 30 -5 30 16 0 21 27 17 51 -7 15 -15 23 -18 29 -9 9 15 95 3
127 -17 21 -14 66 -8 128 17 39 17 124 18 146 2 13 -9 33 -12 55 -9 19 3 36 1
40 -5 5 -7 2 -8 -6 -3 -8 5 -11 3 -8 -6 5 -15 36 -19 54 -7 11 8 53 3 63 -8 3
-4 0 -9 -6 -11 -7 -3 -13 -16 -13 -29 0 -27 -12 -31 -30 -9 -7 8 -19 15 -26
15 -8 0 -14 3 -14 8 0 4 -17 6 -39 4 -23 -2 -51 3 -70 12 -21 11 -37 14 -49 8
-9 -5 -53 -9 -97 -8 -52 1 -85 -3 -93 -11 -16 -15 -52 -17 -52 -3 0 17 -98 27
-170 17 -19 -2 -65 -8 -103 -12 -37 -4 -70 -11 -72 -16 -3 -4 -13 -5 -21 -2
-9 3 -20 0 -24 -7 -4 -7 -13 -9 -19 -6 -18 12 -12 26 12 27 20 1 20 2 2 6 -11
3 -31 16 -45 29 -14 13 -34 31 -45 38 -16 12 -18 17 -7 27 10 11 12 10 12 -1
0 -10 3 -11 10 -4 14 14 -7 64 -26 64 -7 0 -18 -14 -26 -30 -8 -18 -18 -28
-26 -25 -8 3 -18 5 -23 5 -18 0 -3 56 21 80 3 3 7 14 8 25 2 11 8 22 13 23 14
6 11 32 -5 38 -15 6 -59 -33 -69 -60 -4 -9 -11 -16 -17 -16 -5 0 -10 -6 -10
-14 0 -8 -11 -24 -25 -37 -13 -13 -25 -32 -25 -41 0 -10 -4 -18 -10 -18 -5 0
-10 -7 -10 -16 0 -12 6 -15 21 -11 16 4 18 3 8 -9 -6 -8 -9 -25 -7 -39 3 -14
1 -25 -3 -25 -5 0 -9 -11 -9 -24 0 -14 -5 -28 -10 -31 -15 -9 -13 -96 3 -92 8
1 12 -14 13 -48 1 -55 17 -105 34 -105 6 0 8 -5 4 -11 -4 -8 -9 -7 -15 2 -8
12 -12 11 -22 -2 -6 -8 -20 -18 -31 -22 -14 -6 -17 -14 -12 -37 6 -33 -1 -60
-16 -60 -5 0 -6 5 -2 11 4 7 1 10 -6 7 -26 -8 -21 -26 11 -42 40 -20 43 -20
35 0 -7 19 10 44 30 44 19 0 18 -39 -1 -46 -9 -4 -15 -19 -16 -38 l0 -31 -16
22 c-10 15 -26 23 -45 23 -16 0 -27 -4 -24 -9 4 -5 -3 -7 -14 -4 -16 4 -20 0
-21 -18 -1 -23 -2 -20 -15 20 -4 11 -8 11 -22 -3 -25 -22 -42 -20 -42 4 0 11
6 19 13 17 6 -1 12 5 12 13 0 9 -7 14 -19 12 -10 -2 -15 1 -12 6 3 6 3 17 0
26 -7 19 -44 22 -44 4 0 -7 -10 7 -21 32 -11 24 -25 47 -31 51 -7 4 -6 9 1 14
8 4 2 16 -18 36 -17 16 -31 38 -31 48 0 10 -7 24 -15 31 -8 7 -15 22 -15 34 0
17 2 18 10 6 5 -8 10 -11 10 -6 0 4 -11 21 -25 38 -14 16 -25 38 -25 48 0 10
-4 21 -9 24 -5 3 -12 18 -16 33 -3 16 -14 36 -23 46 -11 12 -12 21 -5 28 11
11 -5 69 -19 69 -4 0 -11 18 -14 41 -4 22 -13 43 -21 46 -10 4 -11 9 -2 19 12
14 3 55 -15 66 -6 4 -7 11 -2 15 4 4 14 -1 22 -11 7 -11 17 -16 21 -12 4 4 1
11 -7 16 -14 9 -23 73 -21 155 0 22 -3 49 -8 60 -5 11 -21 72 -37 135 -23 96
-28 138 -28 255 -1 163 16 343 41 423 9 32 32 86 51 121 33 61 34 68 37 195 3
138 18 242 42 288 7 15 14 31 14 35 1 12 28 25 39 18 6 -3 10 -1 10 5 0 6 8
10 18 8 11 -2 27 4 36 12 10 8 28 16 39 17 31 5 139 62 154 81 7 8 15 13 19
10 3 -4 28 5 55 19 55 27 159 43 159 24 0 -6 15 -11 35 -11 21 0 35 -5 35 -12
0 -9 4 -8 10 2 5 8 10 11 10 5 0 -5 26 -10 58 -11 31 0 66 -4 77 -9 11 -4 31
-9 45 -10 14 -1 32 -4 40 -7 63 -21 90 -28 117 -28 17 0 33 -4 35 -10 2 -5 28
-14 58 -20 48 -9 57 -8 67 7 11 15 21 15 90 5 81 -11 149 -9 195 7 19 7 28 6
32 -2 3 -8 5 -7 5 2 1 11 4 11 16 1 8 -7 15 -9 15 -4 0 5 21 9 47 8 27 0 64 3
83 7 56 12 258 20 264 11 3 -5 22 -9 43 -10 49 -2 95 -12 110 -24 7 -5 17 -7
23 -3 5 3 10 1 10 -4 0 -6 11 -11 25 -11 14 0 25 -4 25 -10 0 -5 5 -10 11 -10
6 0 22 -13 36 -30 13 -16 33 -30 44 -30 10 0 19 -4 19 -10 0 -5 7 -10 15 -10
8 0 15 -5 15 -11 0 -6 7 -9 15 -5 8 3 15 1 15 -4 0 -6 7 -10 16 -10 8 0 35
-16 59 -37 38 -31 46 -45 60 -102 8 -36 20 -127 25 -201 6 -94 16 -160 34
-217 61 -202 53 -583 -19 -901 -4 -17 -1 -22 14 -22 26 0 44 34 47 89 2 25 8
56 13 70 17 44 35 202 33 278 -3 68 16 190 38 248 5 14 10 38 10 53 0 15 7 38
15 52 8 14 17 32 20 40 13 35 115 69 206 70 51 0 67 17 47 49 -8 14 -29 20
-79 25 -37 3 -74 9 -83 12 -24 9 -30 68 -18 168 16 124 29 140 116 144 36 2
66 7 66 12 0 10 -29 63 -56 106 -38 57 30 115 134 115 49 0 133 5 284 15 48 3
91 11 96 18 5 6 13 32 16 58 6 39 4 50 -13 67 -14 14 -16 21 -8 25 7 3 2 3
-11 0 -14 -3 -32 2 -48 15 -15 12 -31 21 -37 21 -6 0 -18 7 -27 15 -20 18 -96
29 -105 15 -8 -13 -82 -13 -90 0 -3 5 -12 7 -20 3 -9 -3 -22 0 -30 7 -8 7 -22
9 -31 6 -9 -3 -21 -3 -27 1 -6 4 -33 8 -61 9 -39 2 -54 8 -67 26 -22 29 -31
75 -23 116 7 35 33 47 119 56 28 2 68 10 89 16 33 10 41 9 48 -4 5 -9 17 -16
26 -16 10 0 25 -9 35 -20 20 -24 79 -27 97 -5 27 33 114 67 169 67 71 0 97 11
122 52 28 47 58 54 72 15 6 -16 16 -29 22 -29 19 0 45 -57 45 -99 0 -39 13
-55 23 -28 4 9 7 9 18 -1 8 -7 15 -17 15 -22 1 -6 2 -15 3 -21 0 -6 8 -8 17
-5 9 4 31 -2 48 -12 64 -38 211 -56 222 -27 3 8 17 15 30 15 14 0 30 10 40 25
9 14 20 23 24 20 4 -3 15 6 24 20 9 14 26 25 37 25 14 0 19 5 16 14 -4 11 2
12 36 3 23 -5 50 -17 60 -25 20 -18 113 -18 134 0 10 8 13 186 13 839 l0 829
-815 0 -815 0 0 -42 c0 -79 -10 -113 -39 -132 -37 -25 -101 -119 -101 -148 0
-26 63 -126 86 -135 8 -3 14 -11 14 -19 0 -7 9 -19 21 -28 18 -12 21 -23 18
-78 -2 -34 -7 -69 -12 -76 -5 -7 -7 -32 -5 -56 3 -26 0 -53 -8 -67 -7 -13 -14
-19 -15 -14 -1 6 -4 -3 -8 -20 -5 -23 -1 -39 18 -69 23 -35 25 -49 28 -170 5
-195 3 -225 -14 -270 -24 -61 -37 -73 -67 -57 -13 7 -30 25 -37 40 -7 14 -31
45 -52 69 -21 24 -45 59 -53 78 -8 19 -21 37 -29 40 -30 12 -34 64 -29 449 4
354 6 389 24 435 25 64 25 80 -1 137 -20 44 -21 72 -4 116 7 16 -27 17 -632
17 l-639 0 -16 -27 c-8 -16 -18 -44 -22 -64 -7 -41 -20 -55 -80 -84 -54 -26
-57 -51 -10 -90 89 -74 95 -80 101 -117 8 -51 -3 -85 -32 -104 -24 -16 -27
-15 -62 12 l-36 27 -19 -22 c-24 -31 -23 -39 5 -34 27 5 51 -19 61 -61 l7 -28
-58 7 c-32 4 -61 9 -65 11 -3 2 -1 18 5 34 11 29 9 33 -31 69 -40 36 -42 42
-42 93 0 30 7 76 16 102 10 29 14 62 11 83 -4 20 -2 57 3 82 5 25 11 61 14 79
l6 32 -646 -2 c-637 -3 -645 -3 -662 -24 -9 -11 -37 -33 -61 -48 -40 -26 -45
-27 -60 -12 -9 9 -21 31 -27 49 -9 29 -15 32 -53 35 -30 2 -49 -2 -61 -13 -19
-17 -60 -13 -60 6 0 5 -47 9 -105 9 -102 0 -105 -1 -111 -24 -9 -37 -30 -38
-61 -6 l-28 30 -188 0 -187 0 -11 -27 c-8 -22 -5 -34 21 -75 40 -65 40 -107 0
-136 -27 -21 -32 -21 -57 -8 -70 36 -78 83 -28 156 16 24 22 43 18 63 l-5 27
-509 0 -509 0 0 -865z m2082 611 c5 3 8 -6 8 -20 0 -17 -5 -26 -16 -26 -10 0
-14 -6 -11 -14 7 -18 -40 -66 -64 -66 -24 0 -40 56 -26 88 6 12 14 22 18 22 5
0 6 6 3 14 -4 11 3 12 38 6 23 -5 46 -6 50 -4z m-1842 -2345 c0 -5 14 -4 30 2
25 10 36 8 68 -8 20 -11 38 -19 38 -20 1 0 -2 -25 -6 -55 -6 -47 -3 -62 21
-115 15 -33 30 -84 34 -112 l7 -53 -36 0 c-20 0 -36 -4 -36 -10 0 -13 -37 -13
-45 1 -4 5 -17 9 -28 8 -37 -2 -42 0 -60 30 -13 23 -17 53 -17 139 0 60 -5
123 -11 140 -8 24 -8 35 3 46 14 17 38 21 38 7z m3684 -1366 c3 -9 0 -15 -9
-15 -8 0 -15 7 -15 15 0 8 4 15 9 15 5 0 11 -7 15 -15z m386 -15 c0 -5 -2 -10
-4 -10 -3 0 -8 5 -11 10 -3 6 -1 10 4 10 6 0 11 -4 11 -10z m-197 -35 c-5 -16
-33 -21 -33 -7 0 13 22 32 31 26 5 -2 6 -11 2 -19z m29 -66 c-5 -36 -22 -45
-52 -29 l-22 12 23 24 c33 35 57 32 51 -7z m-356 -140 c10 -16 -9 -37 -39 -44
-44 -9 -115 -7 -137 5 -11 6 -21 6 -24 1 -4 -5 -1 -11 5 -13 7 -2 10 -10 8
-16 -3 -9 -11 -7 -25 7 -12 11 -25 16 -30 11 -14 -13 -116 -14 -147 -2 -19 8
-27 18 -25 30 3 15 19 17 160 17 86 0 160 4 164 8 10 9 83 6 90 -4z m-2066
-90 c0 -14 -17 -10 -23 5 -4 10 -1 13 9 9 7 -3 14 -9 14 -14z m2640 -35 c0
-22 -3 -24 -22 -18 -32 9 -33 12 -13 34 21 24 35 18 35 -16z m-765 16 c3 -5 2
-10 -4 -10 -5 0 -13 5 -16 10 -3 6 -2 10 4 10 5 0 13 -4 16 -10z m-1061 -207
c15 -37 34 -81 42 -96 8 -16 14 -34 14 -41 0 -7 16 -44 35 -83 19 -39 35 -75
35 -79 0 -4 16 -26 35 -50 19 -23 35 -46 35 -51 0 -4 9 -14 19 -20 12 -7 21
-26 23 -45 2 -20 8 -32 16 -30 6 1 12 -2 12 -8 0 -5 -12 -10 -26 -10 -22 0
-24 -2 -14 -15 10 -11 9 -18 -3 -30 -9 -8 -20 -15 -25 -15 -6 0 -13 -7 -16
-16 -5 -13 -9 -14 -21 -4 -11 9 -15 9 -15 1 0 -18 -20 -2 -30 23 -7 17 -9 18
-9 3 -1 -12 -5 -16 -13 -10 -7 4 -17 8 -23 8 -18 1 -85 47 -80 55 2 4 -7 12
-20 18 -14 7 -25 16 -25 20 0 5 -17 21 -37 35 -21 14 -62 48 -91 75 l-54 49
49 41 c59 49 108 146 124 243 21 132 22 133 63 32z m171 -72 c13 -16 15 -21 5
-16 -29 16 -40 27 -34 37 3 5 7 8 8 6 0 -2 10 -14 21 -27z m70 19 c3 -5 2 -10
-4 -10 -5 0 -13 5 -16 10 -3 6 -2 10 4 10 5 0 13 -4 16 -10z m1542 -352 c-3
-8 -6 -5 -6 6 -1 11 2 17 5 13 3 -3 4 -12 1 -19z m-5 -30 c3 -7 1 -35 -3 -62
-4 -28 -12 -116 -19 -196 -18 -233 -45 -378 -96 -522 -24 -70 -70 -148 -86
-148 -8 0 -29 -42 -23 -48 2 -2 17 4 34 12 31 17 46 10 31 -14 -8 -13 -101
-42 -109 -34 -2 2 4 13 13 23 10 11 19 39 21 63 1 24 5 57 9 73 6 23 5 27 -3
15 -10 -13 -13 -13 -26 4 -7 10 -18 15 -24 11 -6 -3 -11 -1 -11 5 0 6 -11 15
-25 20 -14 5 -25 17 -25 27 0 10 -23 40 -50 66 -29 29 -47 54 -43 63 3 9 -2
14 -15 14 -36 0 -34 27 2 34 18 4 42 16 52 28 11 12 13 18 5 13 -10 -5 -12 -4
-7 3 4 7 12 12 18 12 5 0 22 9 38 20 15 11 30 17 34 13 3 -3 6 -2 6 3 0 6 -5
15 -11 21 -12 12 51 100 70 95 6 -1 11 5 11 13 0 8 5 15 10 15 17 0 52 37 49
51 -3 14 63 123 81 134 7 4 7 12 0 25 -14 26 -13 33 5 26 11 -4 15 1 15 19 0
14 6 25 13 25 8 0 7 4 -3 10 -13 8 -12 10 3 10 10 0 15 4 12 10 -6 10 22 60
35 60 5 0 10 -5 12 -12z m-1512 -136 c0 -5 -7 -9 -15 -9 -8 0 -12 4 -9 9 3 4
9 8 15 8 5 0 9 -4 9 -8z m10 -33 c0 -12 -50 -40 -60 -34 -16 10 -11 33 8 38
25 6 52 4 52 -4z m1130 -973 c0 -17 -14 -29 -23 -20 -8 8 3 34 14 34 5 0 9 -6
9 -14z m166 -142 c23 -56 12 -77 -14 -27 -24 47 -27 63 -11 63 5 0 17 -16 25
-36z m-86 -20 c0 -8 -4 -12 -10 -9 -5 3 -10 10 -10 16 0 5 5 9 10 9 6 0 10 -7
10 -16z m79 -102 c27 -53 34 -60 78 -74 35 -11 57 -26 81 -57 55 -73 36 -131
-44 -131 -64 0 -104 37 -104 96 0 24 -11 83 -25 130 -27 94 -27 94 -20 94 3 0
18 -26 34 -58z m1058 -359 c-9 -8 -48 8 -42 18 4 5 14 5 26 -2 12 -6 18 -13
16 -16z"/>
<path d="M4158 270 c-24 -14 -23 -35 2 -60 35 -35 100 -21 100 21 0 34 -68 60
-102 39z"/>
<path d="M6330 4938 c0 -7 -14 -21 -31 -30 -17 -10 -28 -22 -24 -27 7 -12 -26
-31 -53 -31 -11 0 -33 7 -48 15 -33 17 -104 20 -104 5 0 -13 97 -60 123 -60 9
0 17 -4 17 -8 0 -10 81 -32 119 -32 17 0 42 5 58 11 15 6 85 17 154 24 106 11
170 27 197 50 11 9 -26 55 -55 69 -28 13 -46 15 -96 7 -34 -5 -71 -9 -82 -10
-11 0 -37 -3 -57 -5 -21 -3 -38 -1 -38 4 0 6 -11 10 -24 10 -14 0 -28 5 -31
10 -9 14 -25 12 -25 -2z"/>
<path d="M27 4893 l-27 -4 0 -125 0 -124 31 0 c40 0 69 16 69 39 0 27 18 38
87 51 51 9 67 8 90 -4 16 -8 54 -19 85 -25 48 -8 66 -7 105 7 27 9 51 21 55
26 3 5 14 2 23 -7 9 -10 20 -15 25 -12 5 3 11 1 15 -5 8 -13 51 -13 76 1 17 9
19 18 15 71 -3 34 -9 64 -13 69 -33 31 -200 24 -269 -12 l-41 -22 -44 26 c-78
46 -184 65 -282 50z"/>
<path d="M800 4840 c0 -32 60 -64 75 -40 4 6 10 8 15 5 4 -3 14 2 21 11 10 13
10 17 -2 25 -19 12 -109 11 -109 -1z"/>
<path d="M1150 4788 c-19 -7 -20 -11 -9 -24 29 -36 69 -45 205 -49 l134 -4 13
27 c7 15 12 35 10 44 -4 15 -21 17 -168 16 -90 -1 -173 -6 -185 -10z"/>
<path d="M0 4413 c0 -65 4 -64 30 6 l18 51 -24 0 c-23 0 -24 -3 -24 -57z"/>
<path d="M2694 4210 c-22 -3 -62 -20 -89 -38 -27 -18 -58 -32 -69 -32 -33 0
-43 -12 -43 -49 0 -21 -6 -37 -16 -43 -19 -10 -23 -43 -5 -54 8 -5 7 -10 -4
-18 -16 -12 -30 -126 -17 -126 11 0 20 -33 11 -39 -23 -16 -21 -43 5 -67 14
-13 31 -24 37 -24 18 0 38 -37 23 -43 -7 -3 13 -6 43 -6 31 -1 61 -6 67 -12
15 -15 36 -1 29 20 -4 9 2 6 14 -8 12 -13 19 -30 16 -38 -3 -7 1 -13 10 -13 8
0 20 -13 25 -30 6 -16 16 -30 22 -30 5 0 2 -8 -7 -19 -16 -18 -15 -19 21 -26
21 -4 43 -10 48 -15 17 -14 117 -28 175 -24 31 1 88 12 127 22 39 11 74 18 77
15 2 -3 10 -2 16 2 9 5 9 10 1 14 -6 4 6 15 27 26 52 28 172 144 172 168 0 29
48 87 71 87 11 0 22 7 25 15 9 23 70 30 112 12 20 -9 56 -21 78 -27 39 -9 43
-14 64 -73 13 -34 22 -63 22 -64 -1 -1 13 -18 31 -37 34 -36 117 -92 117 -79
0 5 6 1 13 -8 29 -37 138 -62 242 -55 98 6 224 33 247 54 10 8 24 12 32 9 14
-6 30 25 26 52 -1 7 1 23 4 35 5 21 9 22 63 15 102 -13 106 -12 101 16 -5 26
-2 28 57 37 12 2 20 12 21 23 1 11 4 28 8 38 14 38 15 47 6 52 -6 4 -10 19
-10 34 0 15 -3 31 -7 35 -4 4 -6 24 -4 45 1 22 -2 42 -8 46 -6 3 -11 22 -11
40 0 38 -16 53 -82 76 -20 7 -42 22 -48 34 -7 12 -27 29 -45 38 -34 16 -43 16
-268 -6 -20 -3 -46 -12 -56 -21 -10 -9 -22 -16 -27 -15 -13 4 -98 -24 -105
-34 -3 -4 -32 -10 -63 -12 -59 -5 -180 -38 -225 -61 -14 -8 -35 -14 -47 -14
-11 0 -29 -9 -39 -20 -10 -12 -24 -19 -31 -16 -7 3 -17 -1 -22 -7 -12 -14 -12
-16 -12 -58 0 -30 -1 -30 -47 -27 -41 3 -48 6 -46 23 1 10 -7 26 -16 35 -14
11 -16 21 -10 38 6 16 5 22 -6 22 -8 0 -15 -7 -15 -15 0 -8 -4 -15 -10 -15 -5
0 -10 7 -10 16 0 9 -6 14 -12 12 -7 -3 -21 6 -32 20 -15 19 -26 23 -50 19 -17
-2 -44 2 -59 10 -16 8 -49 16 -75 19 -46 5 -109 23 -167 49 -55 25 -119 44
-185 55 -114 21 -120 22 -120 30 0 12 -40 16 -86 10z m-67 -235 c-8 -20 -33
-19 -41 1 -3 8 -2 13 2 10 4 -2 14 -1 22 4 18 11 24 5 17 -15z"/>
<path d="M3945 3330 c3 -5 11 -10 16 -10 6 0 7 5 4 10 -3 6 -11 10 -16 10 -6
0 -7 -4 -4 -10z"/>
<path d="M3974 3290 c3 -14 8 -49 12 -77 6 -50 8 -53 36 -53 26 0 29 3 22 23
-13 42 -33 82 -54 107 l-22 25 6 -25z"/>
<path d="M4100 3118 c0 -9 5 -20 10 -23 13 -8 13 5 0 25 -8 13 -10 13 -10 -2z"/>
<path d="M4851 3066 c-7 -8 -11 -27 -9 -43 2 -22 8 -28 28 -28 20 0 25 5 26
25 0 14 -7 33 -16 43 -15 15 -19 16 -29 3z"/>
<path d="M4130 3055 c0 -8 5 -15 10 -15 6 0 10 7 10 15 0 8 -4 15 -10 15 -5 0
-10 -7 -10 -15z"/>
<path d="M3005 3040 c3 -5 8 -10 11 -10 2 0 4 5 4 10 0 6 -5 10 -11 10 -5 0
-7 -4 -4 -10z"/>
<path d="M3120 2799 c0 -5 5 -7 10 -4 6 3 10 8 10 11 0 2 -4 4 -10 4 -5 0 -10
-5 -10 -11z"/>
<path d="M55 2548 c-16 -6 -36 -12 -43 -14 -10 -3 -12 -52 -10 -221 l3 -218
45 -3 c27 -2 53 3 64 11 18 13 18 18 6 68 -7 30 -13 74 -14 98 -1 36 -6 46
-29 57 -32 17 -47 43 -47 82 0 40 26 59 89 68 58 7 91 31 91 64 0 18 -6 20
-62 19 -35 -1 -76 -6 -93 -11z"/>
<path d="M2750 2540 c-8 -5 -14 -24 -15 -42 0 -24 -6 -36 -22 -43 -32 -14 -30
-45 2 -45 26 0 35 15 13 22 -16 6 -1 28 19 28 19 0 42 28 43 51 0 23 -23 40
-40 29z"/>
<path d="M2695 2380 c-3 -5 1 -10 9 -10 9 0 16 5 16 10 0 6 -4 10 -9 10 -6 0
-13 -4 -16 -10z"/>
<path d="M4390 2290 c0 -5 7 -10 15 -10 8 0 15 5 15 10 0 6 -7 10 -15 10 -8 0
-15 -4 -15 -10z"/>
<path d="M3041 2264 c0 -11 3 -14 6 -6 3 7 2 16 -1 19 -3 4 -6 -2 -5 -13z"/>
<path d="M223 2138 c-1 -10 3 -18 9 -18 6 0 5 -6 -3 -16 -11 -14 -8 -15 31
-12 26 2 45 9 48 17 3 8 0 11 -7 7 -6 -4 -11 -2 -11 3 0 6 7 11 15 11 8 0 15
4 15 9 0 5 -22 11 -48 13 -40 2 -48 0 -49 -14z"/>
<path d="M4445 2150 c3 -5 8 -10 11 -10 2 0 4 5 4 10 0 6 -5 10 -11 10 -5 0
-7 -4 -4 -10z"/>
<path d="M3596 2045 c4 -8 8 -15 10 -15 2 0 4 7 4 15 0 8 -4 15 -10 15 -5 0
-7 -7 -4 -15z"/>
<path d="M3290 2015 c0 -8 2 -15 4 -15 2 0 6 7 10 15 3 8 1 15 -4 15 -6 0 -10
-7 -10 -15z"/>
<path d="M163 1888 c-32 -15 -29 -22 18 -44 68 -30 89 -51 89 -89 0 -33 -7
-42 -69 -85 -11 -8 -21 -25 -21 -37 0 -13 -4 -23 -10 -23 -5 0 -1 -9 10 -20
11 -11 22 -31 26 -45 3 -14 12 -25 19 -25 7 0 16 -6 18 -12 4 -10 7 -10 14 0
7 9 15 6 33 -13 20 -22 22 -31 17 -84 -4 -33 -4 -73 -1 -88 5 -28 7 -28 61
-23 51 5 57 8 75 40 10 20 16 45 13 60 -3 14 -1 49 4 79 7 47 6 56 -11 73 -20
20 -20 20 -64 -28 -24 -26 -44 -51 -44 -56 0 -4 -5 -8 -10 -8 -10 0 -7 212 6
348 8 84 0 92 -85 91 -36 0 -76 -5 -88 -11z"/>
<path d="M0 1405 c0 -288 2 -335 15 -335 20 0 37 36 41 85 1 22 5 60 8 85 3
25 10 86 14 135 5 50 14 99 20 111 11 20 8 38 -17 127 -20 68 -24 77 -31 77
-5 0 -11 9 -15 19 -3 11 -12 22 -20 25 -13 5 -15 -40 -15 -329z"/>
<path d="M6711 1098 c2 -24 -15 -97 -33 -138 -30 -71 -30 -79 13 -121 l39 -39
21 21 c11 11 22 33 26 49 3 17 9 30 14 30 14 0 11 137 -3 163 -23 40 -41 57
-60 57 -14 0 -19 -6 -17 -22z"/>
<path d="M6659 672 c-8 -10 -19 -23 -23 -30 -9 -16 43 -100 67 -108 9 -3 17
-9 17 -14 0 -5 9 -12 20 -15 17 -5 20 -15 20 -60 0 -30 5 -57 11 -60 6 -4 14
-17 19 -29 5 -13 8 40 8 135 l0 156 -28 22 c-36 26 -90 28 -111 3z"/>
</g>
</svg>
